<svg width="32" height="25" viewBox="0 0 32 25" fill="none" xmlns="http://www.w3.org/2000/svg">
<path id="Vector" d="M10.352 12.567C10.352 13.245 9.81298 13.761 9.12998 13.761C8.61898 13.761 8.24098 13.472 8.24098 12.928C8.24098 12.25 8.76898 11.706 9.44698 11.706C9.96398 11.706 10.352 12.023 10.352 12.567ZM4.47398 9.873H4.21298C4.12998 9.873 4.04598 9.929 4.03498 10.023L3.79598 11.507L4.25198 11.49C4.86298 11.49 5.33498 11.407 5.44598 10.701C5.57398 9.956 5.10198 9.873 4.47398 9.873ZM20.252 9.873H20.002C19.902 9.873 19.835 9.929 19.824 10.023L19.591 11.507L20.035 11.49C20.757 11.49 21.257 11.323 21.257 10.49C21.251 9.901 20.725 9.873 20.252 9.873ZM32.002 2.667V22.223C32.0017 22.9303 31.7206 23.6085 31.2205 24.1086C30.7204 24.6087 30.0422 24.8897 29.335 24.89H2.66798C1.96073 24.8897 1.28252 24.6087 0.782415 24.1086C0.282313 23.6085 0.0012416 22.9303 0.000976562 22.223V2.667C0.0012416 1.95975 0.282313 1.28154 0.782415 0.781439C1.28252 0.281337 1.96073 0.000265037 2.66798 0H29.335C30.0422 0.000265037 30.7204 0.281337 31.2205 0.781439C31.7206 1.28154 32.0017 1.95975 32.002 2.667ZM7.12998 10.189C7.12998 9.022 6.22998 8.633 5.20198 8.633H2.97998C2.9082 8.63355 2.83912 8.66043 2.78584 8.70854C2.73257 8.75665 2.69881 8.82265 2.69098 8.894L1.77998 14.566C1.76298 14.677 1.84698 14.788 1.95798 14.788H3.01398C3.16398 14.788 3.30298 14.627 3.31998 14.471L3.56998 12.993C3.62598 12.593 4.30298 12.732 4.56998 12.732C6.15898 12.732 7.13098 11.788 7.13098 10.188L7.12998 10.189ZM11.808 10.678H10.752C10.541 10.678 10.53 10.984 10.519 11.134C10.197 10.662 9.72998 10.578 9.20198 10.578C7.84098 10.578 6.80198 11.772 6.80198 13.089C6.80198 14.172 7.47998 14.878 8.56298 14.878C9.06298 14.878 9.68498 14.606 10.035 14.217C10.0027 14.3294 9.98386 14.4452 9.97898 14.562C9.97898 14.69 10.035 14.784 10.157 14.784H11.113C11.263 14.784 11.391 14.623 11.419 14.467L11.986 10.895C12.003 10.789 11.919 10.678 11.808 10.678ZM14.058 16.117L17.597 10.972C17.625 10.944 17.625 10.916 17.625 10.878C17.625 10.784 17.542 10.684 17.447 10.684H16.38C16.3303 10.686 16.2818 10.6996 16.2384 10.7237C16.195 10.7478 16.1578 10.7819 16.13 10.823L14.658 12.99L14.047 10.907C14.024 10.8436 13.9826 10.7886 13.928 10.7491C13.8735 10.7095 13.8083 10.6872 13.741 10.685H12.702C12.607 10.685 12.524 10.785 12.524 10.879C12.524 10.946 13.607 14.035 13.702 14.329C13.552 14.54 12.563 15.918 12.563 16.085C12.563 16.185 12.646 16.263 12.741 16.263H13.808C13.8579 16.2597 13.9064 16.245 13.9497 16.2201C13.9931 16.1951 14.0301 16.1605 14.058 16.119V16.117ZM22.908 10.189C22.908 9.022 22.008 8.633 20.98 8.633H18.774C18.7001 8.63241 18.6285 8.65847 18.5723 8.70641C18.5161 8.75436 18.479 8.82096 18.468 8.894L17.568 14.561C17.557 14.672 17.64 14.783 17.746 14.783H18.885C18.996 14.783 19.079 14.7 19.107 14.605L19.357 12.994C19.413 12.594 20.091 12.733 20.357 12.733C21.935 12.733 22.908 11.789 22.908 10.189ZM27.585 10.678H26.529C26.318 10.678 26.307 10.984 26.29 11.134C25.984 10.662 25.512 10.578 24.973 10.578C23.612 10.578 22.573 11.772 22.573 13.089C22.573 14.172 23.251 14.878 24.334 14.878C24.851 14.878 25.473 14.606 25.806 14.217C25.789 14.3 25.75 14.478 25.75 14.562C25.75 14.69 25.806 14.784 25.928 14.784H26.889C27.039 14.784 27.167 14.623 27.195 14.467L27.762 10.895C27.779 10.789 27.696 10.678 27.585 10.678ZM30.224 8.828C30.224 8.717 30.141 8.634 30.046 8.634H29.018C28.935 8.634 28.851 8.701 28.84 8.784L27.94 14.562L27.924 14.59C27.924 14.69 28.007 14.784 28.118 14.784H29.035C29.174 14.784 29.313 14.623 29.324 14.467L30.224 8.845V8.828ZM25.224 11.706C24.546 11.706 24.018 12.245 24.018 12.928C24.018 13.467 24.407 13.761 24.918 13.761C25.585 13.761 26.124 13.25 26.124 12.567C26.13 12.023 25.741 11.706 25.224 11.706Z" fill="#FCF6F6"/>
</svg>
