<svg width="32" height="25" viewBox="0 0 32 25" fill="none" xmlns="http://www.w3.org/2000/svg">
<path id="Vector" d="M26.829 20.961C26.829 21.339 26.574 21.611 26.207 21.611C25.829 21.611 25.585 21.322 25.585 20.961C25.585 20.6 25.829 20.311 26.207 20.311C26.574 20.311 26.829 20.6 26.829 20.961ZM9.562 20.311C9.167 20.311 8.94 20.6 8.94 20.961C8.94 21.322 9.168 21.611 9.562 21.611C9.923 21.611 10.167 21.339 10.167 20.961C10.161 20.6 9.923 20.311 9.562 20.311ZM16.09 20.295C15.79 20.295 15.606 20.489 15.562 20.778H16.623C16.573 20.461 16.379 20.295 16.09 20.295ZM22.079 20.311C21.701 20.311 21.474 20.6 21.474 20.961C21.474 21.322 21.702 21.611 22.079 21.611C22.457 21.611 22.701 21.339 22.701 20.961C22.701 20.6 22.456 20.311 22.079 20.311ZM27.962 21.761C27.962 21.778 27.979 21.789 27.979 21.822C27.979 21.839 27.962 21.85 27.962 21.883C27.945 21.9 27.945 21.911 27.934 21.927C27.917 21.944 27.906 21.955 27.873 21.955C27.856 21.972 27.845 21.972 27.812 21.972C27.795 21.972 27.784 21.972 27.751 21.955C27.734 21.955 27.723 21.938 27.707 21.927C27.69 21.91 27.679 21.899 27.679 21.883C27.662 21.855 27.662 21.839 27.662 21.822C27.662 21.794 27.662 21.778 27.679 21.761C27.679 21.733 27.696 21.717 27.707 21.7C27.724 21.683 27.735 21.683 27.751 21.672C27.779 21.655 27.795 21.655 27.812 21.655C27.84 21.655 27.856 21.655 27.873 21.672C27.901 21.688 27.917 21.688 27.934 21.7C27.951 21.712 27.945 21.733 27.962 21.761ZM27.84 21.839C27.868 21.839 27.868 21.822 27.884 21.822C27.901 21.805 27.901 21.794 27.901 21.778C27.901 21.762 27.901 21.75 27.884 21.734C27.868 21.734 27.856 21.717 27.823 21.717H27.734V21.911H27.778V21.833H27.795L27.856 21.911H27.9L27.84 21.839ZM32.001 2.667V22.223C32.0007 22.9303 31.7197 23.6085 31.2196 24.1086C30.7195 24.6087 30.0413 24.8897 29.334 24.89H2.667C1.95975 24.8897 1.28154 24.6087 0.781439 24.1086C0.281337 23.6085 0.000265037 22.9303 0 22.223V2.667C0.000265037 1.95975 0.281337 1.28154 0.781439 0.781439C1.28154 0.281337 1.95975 0.000265037 2.667 0H29.334C30.0413 0.000265037 30.7195 0.281337 31.2196 0.781439C31.7197 1.28154 32.0007 1.95975 32.001 2.667ZM3.557 10.422C3.557 14.672 7.007 18.116 11.251 18.116C12.7624 18.1117 14.2397 17.6657 15.501 16.833C11.451 13.539 11.479 7.322 15.501 4.027C14.2409 3.19163 12.7629 2.74544 11.251 2.744C7.007 2.739 3.557 6.188 3.557 10.422ZM16.001 16.467C19.918 13.411 19.901 7.456 16.001 4.384C12.101 7.456 12.084 13.417 16.001 16.467ZM8.095 20.706C8.095 20.223 7.778 19.906 7.278 19.889C7.022 19.889 6.75 19.967 6.567 20.25C6.434 20.022 6.206 19.889 5.889 19.889C5.77381 19.8872 5.65994 19.9136 5.55728 19.9659C5.45463 20.0182 5.3663 20.0948 5.3 20.189V19.945H4.845V21.984H5.3C5.3 20.934 5.161 20.306 5.8 20.306C6.367 20.306 6.256 20.873 6.256 21.984H6.695C6.695 20.967 6.556 20.306 7.195 20.306C7.762 20.306 7.65 20.862 7.65 21.984H8.106V20.706H8.095ZM10.59 19.945H10.151V20.189C10.0733 20.0921 9.97413 20.0145 9.86133 19.9625C9.74853 19.9104 9.62518 19.8852 9.501 19.889C8.929 19.889 8.49 20.345 8.49 20.961C8.49 21.583 8.929 22.033 9.501 22.033C9.79 22.033 10.001 21.927 10.151 21.733V21.989H10.59V19.945ZM12.84 21.367C12.84 20.534 11.568 20.911 11.568 20.522C11.568 20.205 12.229 20.256 12.596 20.461L12.779 20.1C12.257 19.761 11.101 19.767 11.101 20.556C11.101 21.35 12.373 21.017 12.373 21.389C12.373 21.739 11.623 21.711 11.223 21.433L11.029 21.783C11.651 22.205 12.84 22.116 12.84 21.366V21.367ZM14.807 21.883L14.685 21.505C14.474 21.621 14.007 21.749 14.007 21.277V20.355H14.735V19.944H14.007V19.322H13.551V19.944H13.129V20.35H13.551V21.278C13.551 22.256 14.512 22.078 14.807 21.883ZM15.545 21.139H17.073C17.073 20.239 16.662 19.883 16.106 19.883C15.517 19.883 15.095 20.322 15.095 20.955C15.095 22.094 16.351 22.283 16.973 21.744L16.762 21.411C16.329 21.767 15.673 21.733 15.545 21.139ZM18.829 19.945C18.574 19.834 18.185 19.845 17.985 20.189V19.945H17.529V21.984H17.985V20.834C17.985 20.189 18.513 20.273 18.696 20.367L18.829 19.945ZM19.418 20.961C19.418 20.327 20.063 20.122 20.568 20.494L20.779 20.133C20.134 19.628 18.962 19.905 18.962 20.966C18.962 22.066 20.206 22.288 20.779 21.799L20.568 21.438C20.057 21.799 19.418 21.583 19.418 20.96V20.961ZM23.123 19.945H22.667V20.189C22.206 19.578 21.006 19.923 21.006 20.961C21.006 22.028 22.25 22.333 22.667 21.733V21.989H23.123V19.945ZM24.995 19.945C24.862 19.878 24.384 19.784 24.151 20.189V19.945H23.712V21.984H24.151V20.834C24.151 20.223 24.651 20.262 24.862 20.367L24.995 19.945ZM27.234 19.117H26.795V20.189C26.339 19.584 25.134 19.906 25.134 20.961C25.134 22.039 26.384 22.327 26.795 21.733V21.989H27.234V19.117ZM27.657 14.945V15.201H27.701V14.945H27.806V14.901H27.55V14.945H27.657ZM28.023 21.822C28.023 21.794 28.023 21.761 28.007 21.733C27.99 21.716 27.979 21.689 27.963 21.672C27.947 21.655 27.919 21.644 27.902 21.628C27.874 21.628 27.841 21.611 27.813 21.611C27.796 21.611 27.769 21.628 27.735 21.628C27.7131 21.6403 27.6926 21.6551 27.674 21.672C27.646 21.688 27.63 21.716 27.63 21.733C27.613 21.761 27.613 21.794 27.613 21.822C27.613 21.839 27.613 21.866 27.63 21.9C27.63 21.917 27.647 21.944 27.674 21.961C27.6909 21.9799 27.7117 21.995 27.735 22.005C27.763 22.021 27.796 22.021 27.813 22.021C27.841 22.021 27.874 22.021 27.902 22.005C27.919 21.988 27.946 21.977 27.963 21.961C27.98 21.945 27.991 21.917 28.007 21.9C28.023 21.867 28.023 21.839 28.023 21.822ZM28.201 14.895H28.123L28.034 15.089L27.945 14.895H27.867V15.195H27.911V14.967L28 15.161H28.061L28.139 14.967V15.195H28.2L28.201 14.895ZM28.445 10.422C28.445 6.188 24.995 2.739 20.751 2.739C19.2395 2.74279 17.7621 3.18878 16.501 4.022C20.507 7.317 20.568 13.55 16.501 16.828C17.7618 17.6619 19.2394 18.108 20.751 18.111C24.995 18.117 28.445 14.672 28.445 10.422Z" fill="#FCF6F6"/>
</svg>
