<svg width="38" height="25" viewBox="0 0 38 25" fill="none" xmlns="http://www.w3.org/2000/svg">
<path id="Vector" d="M35.443 24.999H2.53165C1.86021 24.999 1.21628 24.7356 0.741502 24.2667C0.266726 23.7978 0 23.1619 0 22.4989L0 11.9817H1.82384L2.23523 10.9984H3.15612L3.56646 11.9776H7.15506V11.2328L7.47574 11.9828H9.33861L9.65928 11.2203V11.9807H18.576V10.3723H18.7447C18.865 10.3765 18.8998 10.3869 18.8998 10.5848V11.9828H23.5127V11.6088C23.9842 11.8453 24.5401 11.9838 25.1297 11.9838L25.23 11.9828H25.2247H27.1656L27.5812 11.0036H28.5021L28.9082 11.9828H32.6487V11.0515L33.2141 11.9828H36.2057V5.83254H33.2447V6.55861L32.8302 5.83254H29.7859V6.55861L29.4051 5.83254H25.2943C24.6715 5.80145 24.0509 5.92803 23.4916 6.20026L23.5137 6.19088V5.83254H20.6783V6.19088C20.3351 5.92374 19.9016 5.79595 19.4662 5.83358H19.4726H9.11076L8.41561 7.42218L7.70148 5.83358H4.43776V6.55965L4.07806 5.83358H1.29325L0.00316456 8.75037V2.5001C0.00316456 1.83704 0.269891 1.20112 0.744666 0.732264C1.21944 0.263403 1.86338 0 2.53481 0H35.4462C36.1176 0 36.7616 0.263403 37.2363 0.732264C37.7111 1.20112 37.9778 1.83704 37.9778 2.5001V13.4172H36.0021C35.9705 13.4151 35.9325 13.4151 35.8956 13.4151C35.4378 13.4151 35.0127 13.5506 34.6582 13.7829L34.6667 13.7777V13.4172H31.7447C31.2882 13.3923 30.8366 13.5204 30.4631 13.7808L30.4694 13.7766V13.4162H25.2521V13.7766C24.825 13.5388 24.3427 13.4146 23.8523 13.4162H23.8112H23.8133H20.3713V13.7766C19.9216 13.4922 19.388 13.3656 18.8565 13.4172L18.866 13.4162H15.0148L14.1329 14.3579L13.308 13.4162H7.55485V19.5706H13.2004L14.1087 18.6143L14.9641 19.5706H18.4441V18.1299H18.9293C19.3959 18.1479 19.8612 18.071 20.2964 17.9039L20.2732 17.9122V19.5727H23.1424V17.9695H23.2806C23.4557 17.9695 23.4736 17.9757 23.4736 18.1508V19.5737H32.193L32.2996 19.5758C32.7996 19.5758 33.2658 19.4279 33.654 19.1748L33.6445 19.18V19.5737H36.4103L36.5422 19.5758C37.0601 19.5758 37.5527 19.4706 38 19.28L37.9757 19.2893V22.4999C37.9757 23.163 37.709 23.7989 37.2342 24.2677C36.7595 24.7366 36.1155 25 35.4441 25L35.443 24.999ZM22.2627 18.7081H21.1888V14.2964H23.653C24.098 14.2557 24.5461 14.3296 24.9536 14.511L24.9367 14.5048C25.2669 14.6839 25.4873 15.0256 25.4873 15.4173L25.4852 15.4871V15.484L25.4863 15.5236C25.4863 16.0298 25.1772 16.4653 24.7342 16.6549L24.7257 16.658C24.9378 16.733 25.115 16.8611 25.2468 17.0268L25.2489 17.0288C25.3979 17.2723 25.4602 17.5579 25.4262 17.8403L25.4272 17.8341V18.707H24.3555V18.1549C24.4062 17.8543 24.3452 17.5457 24.1835 17.2861L24.1867 17.2913C24.0754 17.2079 23.948 17.1476 23.8124 17.1141C23.6768 17.0806 23.5357 17.0746 23.3977 17.0965L23.404 17.0955H22.2627V18.707V18.7081ZM22.2627 15.2079V16.1986H23.5601C23.7433 16.2153 23.9277 16.1829 24.0939 16.1048L24.0876 16.108C24.1554 16.0647 24.2113 16.0053 24.25 15.9353C24.2886 15.8652 24.309 15.7867 24.3091 15.7069L24.308 15.6829C24.3132 15.6033 24.2955 15.5249 24.2569 15.4549C24.2182 15.3848 24.1602 15.327 24.0897 15.2881L24.0876 15.2871C23.9275 15.2164 23.7516 15.1877 23.577 15.2038H23.5812L22.2627 15.2079ZM12.7426 18.707H8.51582V14.2964H12.8091L14.1224 15.7423L15.48 14.2964H18.8903C20.1013 14.2964 20.6899 14.7725 20.6899 15.7496C20.6899 16.7444 20.0812 17.2278 18.8333 17.2278H17.4989V18.706H15.4241L14.1097 17.2486L12.7437 18.707H12.7426ZM16.4357 14.7694L14.7964 16.509L16.4357 18.3049V14.7694ZM9.58017 16.9101V17.7872H12.2046L13.4177 16.4934L12.2511 15.2079H9.57911V16.01H11.923V16.909L9.58017 16.9101ZM17.4989 15.209V16.3319H18.8776C19.2996 16.3319 19.5422 16.1194 19.5422 15.7486C19.5422 15.3944 19.3165 15.2079 18.8892 15.2079L17.4989 15.209ZM36.5264 18.7091H34.4652V17.7612H36.5179C36.6715 17.7821 36.8273 17.7424 36.9515 17.6507L36.9504 17.6518C36.9901 17.6155 37.0217 17.5715 37.0433 17.5225C37.0649 17.4736 37.076 17.4208 37.076 17.3674V17.3507C37.076 17.298 37.0645 17.2459 37.0421 17.198C37.0196 17.1502 36.9869 17.1077 36.9462 17.0736C36.8371 16.9957 36.7024 16.9608 36.5686 16.9757H36.5707L36.3734 16.9695C35.4093 16.9445 34.3175 16.9153 34.3175 15.61C34.3175 14.9746 34.7205 14.2964 35.8481 14.2964H37.9757V15.2361H36.0295C35.8792 15.2194 35.7274 15.2493 35.5949 15.3215L35.5992 15.3194C35.5471 15.3532 35.5052 15.4003 35.4779 15.4557C35.4506 15.511 35.4389 15.5726 35.4441 15.634V15.6329V15.6444C35.4441 15.7146 35.4665 15.783 35.5082 15.8399C35.5499 15.8967 35.6086 15.9391 35.6762 15.9611L35.6783 15.9621C35.812 16.0028 35.952 16.0198 36.0918 16.0121H36.0886L36.6677 16.0267C37.1043 15.9837 37.5404 16.112 37.8819 16.384L37.8787 16.3819C37.9103 16.4069 37.9378 16.434 37.962 16.4642L37.9631 16.4653L37.9757 18.1445C37.7983 18.3492 37.5727 18.5077 37.3186 18.606C37.0646 18.7043 36.79 18.7393 36.519 18.7081L36.5264 18.7091ZM32.3608 18.7091H30.2806V17.7612H32.3502C32.5051 17.7812 32.6618 17.7416 32.788 17.6507L32.7859 17.6518C32.8253 17.6153 32.8566 17.5713 32.878 17.5224C32.8995 17.4734 32.9104 17.4207 32.9103 17.3674V17.357C32.9103 17.3034 32.8987 17.2504 32.8763 17.2015C32.854 17.1527 32.8213 17.1091 32.7806 17.0736C32.6695 16.9956 32.5332 16.9608 32.3977 16.9757H32.3998L32.2036 16.9695C31.2426 16.9445 30.1519 16.9153 30.1519 15.61C30.1519 14.9746 30.5527 14.2964 31.6783 14.2964H33.8175V15.2361H31.8597C31.7104 15.2196 31.5596 15.2495 31.4283 15.3215L31.4325 15.3194C31.3771 15.357 31.333 15.4088 31.3049 15.4691C31.2768 15.5295 31.2657 15.5962 31.2729 15.6623C31.28 15.7283 31.3051 15.7912 31.3454 15.8444C31.3858 15.8975 31.4399 15.9389 31.5021 15.9642L31.5042 15.9653C31.6397 16.0063 31.7815 16.0232 31.923 16.0153H31.9198L32.4947 16.0298C32.9336 15.9881 33.3717 16.1166 33.7162 16.3882L33.7131 16.3851C33.829 16.5113 33.9172 16.6598 33.972 16.8214C34.0268 16.9829 34.0471 17.1539 34.0316 17.3236V17.3184C34.0348 18.2383 33.4705 18.707 32.3576 18.707L32.3608 18.7091ZM29.6414 18.7091H26.076V14.2954H29.6382V15.2069H27.1414V16.009H29.5802V16.908H27.1414V17.7851L29.6414 17.7893V18.706V18.7091ZM31.7194 11.1192H29.5454L29.1297 10.1358H26.9124L26.5095 11.1192H25.2605C24.6997 11.1484 24.1473 10.9739 23.7078 10.6286L23.7131 10.6317C23.5043 10.4041 23.3458 10.136 23.2477 9.84457C23.1496 9.55311 23.1141 9.24467 23.1435 8.93892L23.1424 8.94725C23.1152 8.63586 23.1525 8.32227 23.2519 8.02554C23.3512 7.72881 23.5107 7.45513 23.7205 7.22113L23.7184 7.22322C23.9399 7.03194 24.1989 6.88773 24.4792 6.79956C24.7596 6.71139 25.0554 6.68114 25.3481 6.7107L25.3397 6.70965H26.3734V7.65032H25.3608C25.2126 7.63147 25.062 7.64513 24.9198 7.69032C24.7776 7.73552 24.6472 7.81114 24.538 7.91179L24.539 7.91075C24.3135 8.19597 24.204 8.55413 24.2321 8.91496V8.90975C24.1985 9.28046 24.3039 9.65044 24.5285 9.94937L24.5253 9.94521C24.735 10.1144 25.0034 10.196 25.2732 10.1723H25.269H25.7479L27.2574 6.7034H28.8608L30.6677 10.8702V6.7034H32.2933L34.1688 9.77437V6.7034H35.2658V11.1119H33.7426L31.7173 7.80137V11.1119L31.7194 11.1192ZM28.0285 7.45448L27.2933 9.21288H28.7669L28.0285 7.45448ZM17.692 11.1171H16.6245V6.70653H19.0802C19.5284 6.66059 19.9809 6.73585 20.3892 6.92425L20.3734 6.918C20.5376 7.00765 20.6745 7.13909 20.7698 7.29865C20.8652 7.4582 20.9155 7.64006 20.9156 7.82533L20.9135 7.89825V7.89512V7.92741C20.9136 8.168 20.8434 8.4035 20.7113 8.60565C20.5792 8.8078 20.3908 8.968 20.1688 9.06705L20.1603 9.07017C20.3724 9.14934 20.5506 9.27643 20.6867 9.43894L20.6888 9.44102C20.8393 9.68538 20.9014 9.97294 20.865 10.2567L20.866 10.2504V11.1161H19.789L19.7848 10.5598V10.4765C19.8231 10.2045 19.7622 9.9279 19.6129 9.69624L19.616 9.70145C19.5043 9.62039 19.3774 9.562 19.2427 9.52963C19.108 9.49727 18.9682 9.49158 18.8312 9.5129L18.8376 9.51186H17.693V11.1161L17.692 11.1171ZM17.692 7.62428V8.60348H18.9873C19.1703 8.62309 19.3552 8.59056 19.52 8.50973L19.5148 8.51181C19.5823 8.47125 19.6382 8.4142 19.677 8.34615C19.7158 8.27811 19.7362 8.20135 19.7363 8.12326L19.7352 8.09409C19.7406 8.01493 19.7224 7.937 19.6828 7.86796C19.6433 7.79891 19.5841 7.74281 19.5127 7.70657L19.5105 7.70553C19.35 7.63752 19.1752 7.60892 19.0011 7.62219H19.0042L17.692 7.62428ZM6.38819 11.1171H4.21941L3.80907 10.1338H1.58544L1.17194 11.1171H0.0116034L1.92405 6.70653H3.50949L5.32489 10.8807V6.70653H7.06646L8.46308 9.69728L9.74684 6.70653H11.5243V11.115H10.4272L10.4251 7.6649L8.87764 11.1161H7.94093L6.38924 7.65969V11.1161L6.38819 11.1171ZM2.69198 7.45448L1.96519 9.21288H3.423L2.69198 7.45448ZM22.616 11.1161H21.5274V6.70653H22.6171V11.115L22.616 11.1161ZM15.8797 11.1161H12.3207V6.70653H15.8861V7.62324H13.3882V8.41806H15.826V9.32331H13.3861V10.2046H15.884V11.115L15.8797 11.1161Z" fill="#FCF6F6"/>
</svg>
