<svg width="32" height="25" viewBox="0 0 32 25" fill="none" xmlns="http://www.w3.org/2000/svg">
<path id="Vector" d="M16.7908 10.4576C16.7908 11.4174 16.2075 11.9699 15.1797 11.9699H13.8297V8.94531H15.1853C16.2075 8.94531 16.7908 9.49219 16.7908 10.4576ZM19.4297 13.9509C19.4297 14.4141 19.8297 14.7154 20.4575 14.7154C21.2575 14.7154 21.8575 14.2076 21.8575 13.4933V13.0636L20.552 13.1473C19.8131 13.1975 19.4297 13.471 19.4297 13.9509ZM32.002 2.67857V22.3214C32.002 23.8002 30.8075 25 29.3353 25H2.66862C1.1964 25 0.00195312 23.8002 0.00195312 22.3214V2.67857C0.00195312 1.19978 1.1964 0 2.66862 0H29.3353C30.8075 0 32.002 1.19978 32.002 2.67857ZM7.10195 9.27455C7.56862 9.31362 8.03529 9.04018 8.32973 8.6942C8.61862 8.33705 8.80751 7.85714 8.75751 7.37165C8.3464 7.38839 7.83529 7.64509 7.54084 8.00223C7.27418 8.30915 7.0464 8.8058 7.10195 9.27455ZM10.4686 13.4319C10.4575 13.4208 9.37973 13.0078 9.36862 11.7578C9.35751 10.7143 10.2186 10.2121 10.2575 10.1842C9.76862 9.4587 9.01306 9.38058 8.75195 9.36384C8.07418 9.32478 7.4964 9.74888 7.17418 9.74888C6.8464 9.74888 6.35751 9.38058 5.82418 9.39174C5.12973 9.4029 4.47973 9.79911 4.12973 10.4297C3.40195 11.6908 3.94084 13.5547 4.6464 14.5815C4.99084 15.0893 5.40751 15.6473 5.95195 15.625C6.46862 15.6027 6.67418 15.2902 7.2964 15.2902C7.92418 15.2902 8.10195 15.625 8.6464 15.6194C9.21306 15.6083 9.56306 15.1116 9.91306 14.6038C10.2964 14.0234 10.4575 13.4654 10.4686 13.4319ZM17.9908 10.452C17.9908 8.96763 16.9631 7.95201 15.4964 7.95201H12.652V15.5636H13.8297V12.9632H15.4575C16.9464 12.9632 17.9908 11.9364 17.9908 10.452ZM22.9908 11.7746C22.9908 10.6752 22.1131 9.96652 20.7686 9.96652C19.5186 9.96652 18.5964 10.6864 18.5631 11.6685H19.6242C19.7131 11.1998 20.1464 10.8929 20.7353 10.8929C21.4575 10.8929 21.8575 11.2277 21.8575 11.8527V12.2712L20.3908 12.3605C19.0242 12.4442 18.2853 13.0078 18.2853 13.9844C18.2853 14.9721 19.0464 15.625 20.1408 15.625C20.8797 15.625 21.5631 15.2511 21.8742 14.654H21.8964V15.5692H22.9853V11.7746H22.9908ZM28.6686 10.0391H27.4742L26.0908 14.5368H26.0686L24.6853 10.0391H23.4464L25.4408 15.5804L25.3353 15.9152C25.1575 16.4844 24.8631 16.7076 24.3408 16.7076C24.2464 16.7076 24.0686 16.6964 23.9964 16.6908V17.606C24.0631 17.6283 24.3575 17.6339 24.4464 17.6339C25.5964 17.6339 26.1353 17.1931 26.6075 15.8594L28.6686 10.0391Z" fill="#FCF6F6"/>
</svg>
