<svg width="32" height="25" viewBox="0 0 32 25" fill="none" xmlns="http://www.w3.org/2000/svg">
<path id="Vector" d="M26.1186 11.1217C26.1186 11.1217 26.5408 13.1975 26.6353 13.6328H24.7797C24.9631 13.1362 25.6686 11.2054 25.6686 11.2054C25.6575 11.2221 25.852 10.6975 25.9631 10.3739L26.1186 11.1217ZM32.002 2.67857V22.3214C32.002 23.8002 30.8075 25 29.3353 25H2.66862C1.1964 25 0.00195312 23.8002 0.00195312 22.3214V2.67857C0.00195312 1.19978 1.1964 0 2.66862 0H29.3353C30.8075 0 32.002 1.19978 32.002 2.67857ZM8.47418 16.6964L11.9853 8.03571H9.62418L7.44084 13.9509L7.20195 12.7511L6.42418 8.76674C6.2964 8.21429 5.90195 8.05804 5.41306 8.03571H1.81862L1.77973 8.20871C2.65751 8.43192 3.44084 8.75558 4.12418 9.16295L6.11306 16.6964H8.47418ZM13.7186 16.7076L15.1186 8.03571H12.8853L11.4908 16.7076H13.7186ZM21.4908 13.8728C21.502 12.885 20.902 12.1317 19.6186 11.5123C18.8353 11.1161 18.3575 10.8482 18.3575 10.4408C18.3686 10.0725 18.7631 9.69308 19.6408 9.69308C20.3686 9.67634 20.902 9.84933 21.302 10.0223L21.502 10.1172L21.8075 8.24219C21.3686 8.0692 20.6686 7.87388 19.8075 7.87388C17.602 7.87388 16.052 9.05692 16.0408 10.7422C16.0242 11.9866 17.152 12.6786 17.9964 13.0971C18.8575 13.5212 19.152 13.8002 19.152 14.1741C19.1408 14.7545 18.452 15.0223 17.8131 15.0223C16.9242 15.0223 16.4464 14.8828 15.7186 14.5592L15.4242 14.4196L15.1131 16.3672C15.6353 16.6071 16.602 16.8192 17.602 16.8304C19.9464 16.8359 21.4742 15.6696 21.4908 13.8728ZM29.3353 16.7076L27.5353 8.03571H25.8075C25.2742 8.03571 24.8686 8.19196 24.6408 8.75558L21.3242 16.7076H23.6686C23.6686 16.7076 24.052 15.6362 24.1353 15.4074H27.002C27.0686 15.7143 27.2686 16.7076 27.2686 16.7076H29.3353Z" fill="#FCF6F6"/>
</svg>
