<svg width="33" height="32" viewBox="0 0 33 32" fill="none" xmlns="http://www.w3.org/2000/svg">
<path d="M31.9416 6.84138L31.9417 6.84149C32.0419 6.95816 32.1149 7.09512 32.155 7.24286C32.1951 7.39061 32.2013 7.54519 32.173 7.69559M31.9416 6.84138L31.9858 7.6604M31.9416 6.84138C31.8409 6.72445 31.7153 6.63082 31.574 6.56673C31.4326 6.50264 31.2787 6.46953 31.1231 6.46952H7.44592L6.71904 2.59215L6.71904 2.59214C6.62487 2.09001 6.3517 1.63715 5.94891 1.31187C5.54627 0.986711 5.03939 0.809358 4.5168 0.809524C4.51678 0.809524 4.51675 0.809524 4.51673 0.809524H1.87737C1.59614 0.809524 1.32523 0.91757 1.12452 1.11178C0.923603 1.30621 0.809524 1.57126 0.809524 1.849C0.809524 2.12674 0.923603 2.3918 1.12452 2.58622C1.32523 2.78043 1.59614 2.88848 1.87737 2.88848H4.50949V2.8885L4.51249 2.88845C4.53835 2.88804 4.56272 2.89659 4.5813 2.91134L4.6997 2.76213L4.5813 2.91134C4.59972 2.92595 4.61096 2.94535 4.61476 2.96534M31.9416 6.84138L4.61476 2.96534M32.173 7.69559L31.9858 7.6604M32.173 7.69559L32.173 7.69556L31.9858 7.6604M32.173 7.69559L30.3964 17.1577L30.3964 17.1577C30.2529 17.9204 29.8376 18.6088 29.2245 19.1037C28.6116 19.5984 27.8396 19.8687 27.0433 19.8685V19.678M31.9858 7.6604L30.2092 17.1225C30.0742 17.8398 29.6834 18.4885 29.1049 18.9555C28.5263 19.4225 27.7967 19.6782 27.0433 19.678M27.0433 19.678L27.0433 19.8685M27.0433 19.678H9.92805L9.96385 19.8685M27.0433 19.8685L8.53224 22.7825C8.63896 23.3537 8.90884 23.8832 9.30948 24.3118C9.25929 24.3512 9.21016 24.3916 9.16214 24.4331M27.0433 19.8685H9.96385M27.0433 19.8685H9.96385M9.96385 19.8685H9.77004L10.2607 22.4783C10.322 22.8043 10.4996 23.0992 10.7625 23.3115C11.0255 23.5238 11.3571 23.64 11.6995 23.64H25.8589M25.8589 23.64C26.7032 23.6394 27.5238 23.9108 28.1911 24.4115C28.8584 24.9121 29.3346 25.6134 29.5444 26.4049C29.7541 27.1964 29.6857 28.0329 29.3498 28.7825C29.0139 29.5322 28.4297 30.1523 27.6892 30.545C26.9488 30.9378 26.0943 31.0809 25.2606 30.9517C24.4268 30.8226 23.6612 30.4285 23.0845 29.8316C22.5078 29.2348 22.1529 28.4692 22.0756 27.6555C22.0054 26.9157 22.1684 26.1745 22.5403 25.5285H22.3223M25.8589 23.64L25.8587 23.4495C26.7438 23.4489 27.6047 23.7334 28.3054 24.2591C29.0063 24.7849 29.5075 25.5224 29.7285 26.3561C29.9495 27.1899 29.8773 28.0711 29.5236 28.8604C29.17 29.6496 28.5556 30.3011 27.7785 30.7133C27.0015 31.1255 26.1055 31.2754 25.2314 31.14C24.3573 31.0045 23.5536 30.5913 22.9475 29.964C22.3413 29.3366 21.9674 28.5309 21.886 27.6735C21.8154 26.93 21.9685 26.1855 22.3223 25.5285M25.8589 23.64L4.61478 2.96543M22.3223 25.5285C22.357 25.4641 22.3936 25.4006 22.4321 25.338H15.2478C15.2863 25.4006 15.323 25.4641 15.3577 25.5285M22.3223 25.5285H15.3577M15.3577 25.5285H15.1396C15.4591 26.0825 15.6257 26.7084 15.6213 27.3453C15.6165 28.0565 15.3987 28.751 14.9945 29.3448C14.5902 29.9387 14.0167 30.4065 13.3434 30.6915C12.6701 30.9766 11.9259 31.0667 11.2008 30.951C10.4757 30.8352 9.80081 30.5187 9.25777 30.0395C8.71474 29.5604 8.32685 28.9392 8.14105 28.2511C7.95525 27.5631 7.9795 26.8377 8.21087 26.1627C8.42178 25.5474 8.79656 24.9981 9.29593 24.5693C9.24992 24.5251 9.20531 24.4797 9.16214 24.4331M15.3577 25.5285C15.6593 26.0876 15.8162 26.7117 15.8118 27.3467C15.8067 28.096 15.5772 28.8273 15.1519 29.452C14.7267 30.0767 14.124 30.5679 13.4177 30.8669C12.7114 31.1659 11.931 31.2604 11.1708 31.1391C10.4106 31.0177 9.70225 30.6857 9.13175 30.1823C8.56119 29.6789 8.15286 29.0255 7.95716 28.3008C7.76144 27.576 7.78701 26.8118 8.03068 26.101C8.25142 25.457 8.64234 24.8824 9.16214 24.4331M9.16214 24.4331C8.74171 23.98 8.45779 23.4211 8.34501 22.8176C8.34501 22.8175 8.345 22.8175 8.345 22.8175L4.61478 2.96543M4.61478 2.96543C4.61477 2.9654 4.61477 2.96537 4.61476 2.96534M4.61478 2.96543L4.61476 2.96534M13.6776 27.319C13.6776 27.6717 13.5696 28.017 13.3664 28.3113C13.1631 28.6057 12.8735 28.8361 12.5335 28.9724C12.1934 29.1087 11.8189 29.1444 11.4575 29.0749C11.0962 29.0053 10.7651 28.8338 10.5058 28.5829C10.2466 28.3321 10.0708 28.0132 9.99963 27.6671C9.92849 27.321 9.96494 26.9623 10.1047 26.6359C10.2444 26.3094 10.4815 26.0293 10.787 25.8318C11.0925 25.6343 11.4523 25.5285 11.8209 25.5285C12.3153 25.5285 12.7883 25.7186 13.1361 26.0551C13.4836 26.3914 13.6776 26.8462 13.6776 27.319ZM27.7156 27.319C27.7156 27.6717 27.6075 28.017 27.4043 28.3113C27.201 28.6057 26.9114 28.8361 26.5714 28.9724C26.2314 29.1087 25.8569 29.1444 25.4955 29.0749C25.1341 29.0053 24.803 28.8338 24.5437 28.5829C24.2845 28.3321 24.1087 28.0132 24.0376 27.6671C23.9664 27.321 24.0029 26.9623 24.1426 26.6359C24.2824 26.3094 24.5195 26.0293 24.8249 25.8318C25.1304 25.6343 25.4903 25.5285 25.8589 25.5285C26.3533 25.5285 26.8262 25.7186 27.174 26.0551C27.5215 26.3914 27.7156 26.8462 27.7156 27.319ZM28.295 16.7831C28.2422 17.0637 28.0891 17.3188 27.8607 17.5033C27.6321 17.6878 27.3429 17.7896 27.0433 17.7895H9.57349L7.83766 8.54847H29.8421L28.295 16.7831Z" fill="#F33838" stroke="#F33838" stroke-width="0.380952"/>
</svg>
