<svg width="30" height="30" viewBox="0 0 30 30" fill="none" xmlns="http://www.w3.org/2000/svg">
<path id="search" d="M17.6276 19.9009L17.5642 19.8375L17.4943 19.8935C16.6513 20.5689 15.681 21.1042 14.5826 21.4991C13.4862 21.8932 12.3187 22.0906 11.0795 22.0906C8.00889 22.0906 5.41408 21.0271 3.28894 18.8989C1.16265 16.7696 0.1 14.1704 0.1 11.0953C0.1 8.02017 1.16265 5.42103 3.28894 3.29171C5.41408 1.16355 8.00889 0.1 11.0795 0.1C14.1502 0.1 16.7456 1.16354 18.8718 3.29169C20.997 5.421 22.0591 8.02016 22.0591 11.0953C22.0591 12.3363 21.862 13.5055 21.4684 14.6035C21.0741 15.7035 20.5395 16.6752 19.865 17.5194L19.8093 17.5892L19.8724 17.6525L29.4605 27.2542C29.7537 27.5477 29.9 27.9061 29.9 28.3357C29.9 28.7627 29.7413 29.136 29.4179 29.4599C29.1259 29.7523 28.7546 29.9 28.2955 29.9C27.8364 29.9 27.465 29.7523 27.173 29.4599L17.6276 19.9009ZM16.5844 16.6078L16.5844 16.6078C18.0943 15.0946 18.85 13.2552 18.85 11.0953C18.85 8.93543 18.0943 7.09599 16.5844 5.58285L16.5844 5.5828C15.0734 4.0708 13.2365 3.31394 11.0795 3.31394C8.92261 3.31394 7.08572 4.0708 5.57472 5.5828L5.57467 5.58285C4.06482 7.09599 3.30909 8.93543 3.30909 11.0953C3.30909 13.2552 4.06482 15.0946 5.57467 16.6078L5.57472 16.6078C7.08572 18.1198 8.92261 18.8767 11.0795 18.8767C13.2365 18.8767 15.0734 18.1198 16.5844 16.6078Z" fill="#F33838" stroke="#1A1A1B" stroke-width="0.2"/>
</svg>
