<svg width="24" height="32" viewBox="0 0 24 32" fill="none" xmlns="http://www.w3.org/2000/svg">
<path id="Vector" d="M23 31.2H23.2V31V25.6429C23.2 23.599 22.3664 21.6399 20.8843 20.1963C19.4024 18.7529 17.3935 17.9429 15.3 17.9429H8.7C6.60646 17.9429 4.59765 18.7529 3.11573 20.1963C1.63363 21.6399 0.8 23.599 0.8 25.6429V31V31.2H1H3.2H3.4V31V25.6429C3.4 24.2768 3.95708 22.9656 4.95046 21.9981C5.94402 21.0303 7.29268 20.4857 8.7 20.4857H15.3C15.9967 20.4857 16.6865 20.6194 17.3299 20.879C17.9733 21.1386 18.5576 21.5189 19.0495 21.9981C19.5415 22.4772 19.9314 23.0457 20.1973 23.671C20.4632 24.2963 20.6 24.9664 20.6 25.6429V31V31.2H20.8H23ZM12 3.34286C13.0494 3.34286 14.0748 3.64598 14.9465 4.21332C15.8182 4.78063 16.4968 5.58642 16.8973 6.52818C17.2978 7.46987 17.4024 8.50577 17.1984 9.50511C16.9943 10.5045 16.4904 11.4232 15.7495 12.1448C15.0086 12.8665 14.0641 13.3585 13.035 13.5579C12.0058 13.7572 10.9392 13.6549 9.97007 13.2639C9.00101 12.8729 8.17359 12.2112 7.59184 11.3631C7.01014 10.5152 6.7 9.5188 6.7 8.5C6.7 7.13396 7.25708 5.82278 8.25046 4.8552C9.24403 3.88744 10.5927 3.34286 12 3.34286ZM12 0.8C10.4387 0.8 8.91201 1.25094 7.61302 2.09635C6.31396 2.94181 5.30066 4.14403 4.70208 5.55161C4.10347 6.95925 3.94675 8.50849 4.252 10.0032C4.55723 11.4979 5.31052 12.8701 6.41573 13.9466C7.52089 15.023 8.92831 15.7555 10.4598 16.0522C11.9912 16.3489 13.5786 16.1967 15.0215 15.6146C16.4644 15.0324 17.6986 14.0462 18.5672 12.7799C19.436 11.5135 19.9 10.0241 19.9 8.5C19.9 6.45611 19.0664 4.49703 17.5843 3.05343C16.1024 1.61 14.0935 0.8 12 0.8Z" fill="#F33838" stroke="#F33838" stroke-width="0.4"/>
</svg>
